<svg xmlns="http://www.w3.org/2000/svg" xmlns:xlink="http://www.w3.org/1999/xlink" width="88.187" height="88.189" viewBox="0 0 88.187 88.189">
  <defs>
    <linearGradient id="linear-gradient" x1="-0.61" x2="1.193" y2="1.379" gradientUnits="objectBoundingBox">
      <stop offset="0" stop-color="#7ed56f" stop-opacity="0.8"/>
      <stop offset="1" stop-color="#28b485" stop-opacity="0.8"/>
    </linearGradient>
  </defs>
  <path id="icono_carrito_bebe" data-name="icono carrito bebe" d="M24.94,2.93a6.468,6.468,0,0,0-9.3-1.619A40.586,40.586,0,0,0,0,33.072H44.094ZM85.431,16.537H77.164A11.034,11.034,0,0,0,66.14,27.56V38.583H0C0,47.3,3.962,55.187,10.386,61.1A13.761,13.761,0,1,0,27.558,74.409a13.919,13.919,0,0,0-.758-4.34,44.588,44.588,0,0,0,23.562,0,13.438,13.438,0,0,0-.758,4.34A13.779,13.779,0,1,0,66.778,61.1C73.2,55.187,77.164,47.3,77.164,38.583V27.56h8.268A2.764,2.764,0,0,0,88.187,24.8V19.292A2.764,2.764,0,0,0,85.431,16.537ZM13.779,79.921a5.512,5.512,0,1,1,5.512-5.512A5.528,5.528,0,0,1,13.779,79.921ZM68.9,74.409A5.512,5.512,0,1,1,63.384,68.9,5.528,5.528,0,0,1,68.9,74.409Z" transform="translate(0 0.001)" fill="url(#linear-gradient)"/>
</svg>
