<svg xmlns="http://www.w3.org/2000/svg" data-name="Layer 1" viewBox="0 0 512 512"><path d="M222.06,305h-65a7.5,7.5,0,0,0,0,15h65a7.5,7.5,0,0,0,0-15Zm-10,52H55.51a7.5,7.5,0,1,0,0,15H212.08a7.5,7.5,0,1,0,0-15Zm-91.23-52h-65a7.5,7.5,0,0,0,0,15h65a7.5,7.5,0,1,0,0-15ZM65.5,257h50A17.52,17.52,0,0,0,133,239.5v-31A17.52,17.52,0,0,0,115.5,191h-50A17.52,17.52,0,0,0,48,208.5v31A17.52,17.52,0,0,0,65.5,257ZM63,208.5a2.5,2.5,0,0,1,2.5-2.5h50a2.5,2.5,0,0,1,2.5,2.5v31a2.5,2.5,0,0,1-2.5,2.5h-50a2.5,2.5,0,0,1-2.5-2.5ZM141.5,387H55.85a7.5,7.5,0,0,0,0,15H141.5a7.5,7.5,0,0,0,0-15Zm181.78-82h-65a7.5,7.5,0,0,0,0,15h65a7.5,7.5,0,0,0,0-15ZM414.5,191h-111A17.52,17.52,0,0,0,286,208.5v12A17.52,17.52,0,0,0,303.5,238h111A17.52,17.52,0,0,0,432,220.5v-12A17.52,17.52,0,0,0,414.5,191Zm2.5,29.5a2.5,2.5,0,0,1-2.5,2.5h-111a2.5,2.5,0,0,1-2.5-2.5v-12a2.5,2.5,0,0,1,2.5-2.5h111a2.5,2.5,0,0,1,2.5,2.5ZM474.5,50H69.5A37.54,37.54,0,0,0,32,87.5v58.91A37.55,37.55,0,0,0,0,183.5v226A37.54,37.54,0,0,0,37.5,447h405A37.54,37.54,0,0,0,480,409.5V350.59a37.55,37.55,0,0,0,32-37.09V87.5A37.54,37.54,0,0,0,474.5,50ZM465,409.5A22.52,22.52,0,0,1,442.5,432H37.5A22.52,22.52,0,0,1,15,409.5v-226A22.52,22.52,0,0,1,37.5,161h405A22.52,22.52,0,0,1,465,183.5Zm32-96a22.54,22.54,0,0,1-17,21.82V183.5c0-.84,0-1.67-.09-2.5H497ZM497,166H475.65a37.53,37.53,0,0,0-33.15-20H47V117H497Zm0-64H47V87.5A22.52,22.52,0,0,1,69.5,65h405A22.52,22.52,0,0,1,497,87.5ZM424.5,305h-65a7.5,7.5,0,0,0,0,15h65a7.5,7.5,0,0,0,0-15ZM402,351a29.94,29.94,0,0,0-15,4A30,30,0,1,0,387,407a30,30,0,1,0,15-56Zm-30,45a15,15,0,1,1,15-15A15,15,0,0,1,372,396Zm30,0a14.67,14.67,0,0,1-3.75-.49,29.95,29.95,0,0,0,0-29A14.67,14.67,0,0,1,402,366a15,15,0,0,1,0,30Z"/></svg>