<svg xmlns="http://www.w3.org/2000/svg" enable-background="new 0 0 64 64" viewBox="0 0 64 64"><path d="M50,45.2c-0.6,0-1,0.4-1,1v13.9c0,0.5-0.4,0.9-0.9,0.9H15.9c-0.5,0-0.9-0.4-0.9-0.9c0-0.6-0.4-1-1-1s-1,0.4-1,1
	c0,1.6,1.3,2.9,2.9,2.9h32.2c1.6,0,2.9-1.3,2.9-2.9V46.2C51,45.6,50.6,45.2,50,45.2z"/><path d="M14 52.9c.6 0 1-.4 1-1v-5.7c0-4.3 2.4-8 6-9.9v8.9c-1.2.4-2 1.5-2 2.8 0 1.7 1.3 3 3 3 .6 0 1-.4 1-1s-.4-1-1-1c-.6 0-1-.4-1-1s.4-1 1-1 1 .4 1 1c0 .6.4 1 1 1s1-.4 1-1c0-1.3-.8-2.4-2-2.8v-9.7c.6-.2 1.3-.3 2-.4V36c0 3.9 3.1 7 7 7 3.9 0 7-3.1 7-7v-.9c.7.1 1.4.2 2 .4v10.1c0 0-4 2.5-4 8.4 0 .6.4 1 1 1h2c.6 0 1-.4 1-1s-.4-1-1-1h-.9c.1-3.6 2.9-5.6 2.9-5.6s2.5 2.3 2.9 5.6H44c-.6 0-1 .4-1 1s.4 1 1 1h2c.6 0 1-.4 1-1-.3-5.3-4-8.4-4-8.4v-9.3c2.4 1.3 4.3 3.4 5.3 6 .2.5.8.8 1.3.6.5-.2.8-.8.6-1.3-1.9-5.2-6.9-8.7-12.4-8.7H26.2C18.9 33 13 38.9 13 46.2v5.7C13 52.5 13.4 52.9 14 52.9zM27 35h10v1c0 2.8-2.2 5-5 5s-5-2.2-5-5V35zM14 57.9c.6 0 1-.4 1-1V55c0-.6-.4-1-1-1s-1 .4-1 1v1.9C13 57.5 13.4 57.9 14 57.9zM27.9 29.3C29 30.4 30.5 31 32 31s3-.6 4.1-1.7l2.9-2.9c1.3-1.3 2-3 2-4.8 0-.6 0-5.6 0-5.6 0 0 0 0 0 0 0-.8-.1-1.5-.3-2.3-.1-.5-.7-.9-1.2-.7-.5.1-.9.7-.7 1.2.1.5.2 1 .2 1.5-.8.1-6.2.9-10.4-1.2-.3-.2-.7-.1-1 .1-.8.7-1.8.9-2.5 1 0-.5.1-1.1.2-1.6.1-.5-.2-1.1-.7-1.2-.5-.1-1.1.2-1.2.7C23.1 14.5 23 15.2 23 16v5.6c0 1.8.7 3.5 2 4.8L27.9 29.3zM26 24.5c-.5-.6-.8-1.3-1-2l1.5 1.5L26 24.5zM34.7 27.9C34 28.6 33 29 32 29s-2-.4-2.7-1.1L27.4 26l1-1h7.2l1 1L34.7 27.9zM38 24.5L37.4 24l1.5-1.5C38.8 23.3 38.4 23.9 38 24.5zM25 17.8c.9-.1 2.1-.4 3.3-1.1 4.8 2.2 9.9 1.2 10.7 1.1 0 .5 0 1.2 0 1.8L35.6 23h-7.2L25 19.6V17.8z"/><path d="M24.7,10.6c0.3,1.4,1.5,2.4,3,2.4h8.7c1.4,0,2.7-1,3-2.4l1.2-6c0.2-0.6,0-3.6-3-3.6c-0.6,0-1,0.4-1,1s0.4,1,1,1
	c0.3,0,1.2,0.4,1,1.2l-1.2,6c-0.1,0.5-0.5,0.8-1,0.8h-8.7c-0.5,0-0.9-0.3-1-0.8l-1.2-6c-0.1-0.3,0-1.2,1-1.2H34c0.6,0,1-0.4,1-1
	s-0.4-1-1-1h-7.5c-3,0-3.1,2.7-3,3.6L24.7,10.6z"/><path d="M32,10c0.6,0,1-0.4,1-1V8h1c0.6,0,1-0.4,1-1s-0.4-1-1-1h-1V5c0-0.6-0.4-1-1-1c-0.6,0-1,0.4-1,1v1h-1c-0.6,0-1,0.4-1,1
	s0.4,1,1,1h1v1C31,9.6,31.4,10,32,10z"/></svg>