<svg xmlns="http://www.w3.org/2000/svg" xmlns:xlink="http://www.w3.org/1999/xlink" width="70" height="122.5" viewBox="0 0 70 122.5">
  <defs>
    <linearGradient id="linear-gradient" x1="1.998" y1="1.417" x2="-1.152" y2="-0.228" gradientUnits="objectBoundingBox">
      <stop offset="0" stop-color="#7ed56f" stop-opacity="0.8"/>
      <stop offset="1" stop-color="#28b485" stop-opacity="0.8"/>
    </linearGradient>
  </defs>
  <g id="crema" transform="translate(-17 -4)">
    <path id="Path_1" data-name="Path 1" d="M82.625,39.313A15.33,15.33,0,0,0,67.313,24h-35A15.33,15.33,0,0,0,17,39.313V96.188a6.582,6.582,0,0,0,6.563,6.562h52.5a6.582,6.582,0,0,0,6.563-6.563ZM27.938,59H23.563V54.625h4.375Zm0-8.75H23.563V37.125h4.375Z" transform="translate(0 23.75)" fill="url(#linear-gradient)"/>
    <rect id="Rectangle_6" data-name="Rectangle 6" width="39" height="8" rx="1" transform="translate(30 35)" fill="url(#linear-gradient)"/>
    <rect id="Rectangle_7" data-name="Rectangle 7" width="8" height="14" transform="translate(46 17)" fill="url(#linear-gradient)"/>
    <path id="Path_2" data-name="Path 2" d="M77.5,9.994,57.484,4H25v8.75H77.5Z" transform="translate(9.5)" fill="url(#linear-gradient)"/>
  </g>
</svg>
