<?xml version="1.0" encoding="UTF-8" standalone="no"?>
<svg xmlns="http://www.w3.org/2000/svg" id="Layer_1" data-name="Layer 1" viewBox="0 0 32 32"><defs><style>.cls-1{fill:#010101;}</style></defs><title>1</title><path class="cls-1" d="M20,13.2948V11.5a0.49971,0.49971,0,0,0-.5-0.5H19V6.5A1.50164,1.50164,0,0,0,17.5,5h-3A1.50164,1.50164,0,0,0,13,6.5V11H12.5a0.49971,0.49971,0,0,0-.5.5v1.7948a6.99531,6.99531,0,0,0,1.40479,13.675c0.01526,0.0014.02942,0.00769,0.04492,0.00769,0.0108,0,.022-0.00305.033-0.00372C13.65411,26.98645,13.82538,27,14,27h4A6.99828,6.99828,0,0,0,20,13.2948Zm-2,6.84485a5.97364,5.97364,0,0,1-1.91919,4.403,5.95207,5.95207,0,0,1-.1601-8.90015A5.98955,5.98955,0,0,1,18,20.13965Zm-2.01538,5.7677L15.96,25.90356c0.05072-.03467.0968-0.07477,0.14648-0.11072,0.036,0.02429.06885,0.05237,0.10541,0.076C16.13715,25.8847,16.06036,25.89435,15.98462,25.90735ZM15.62817,14.16443c0.11761-.02759.23639-0.05115,0.35645-0.07178,0.06641,0.01141.13452,0.01794,0.2002,0.03149q-0.15546.10034-.30463,0.20825C15.79645,14.27594,15.71442,14.21735,15.62817,14.16443Zm-0.56281.85321a6.99781,6.99781,0,0,0,.22479,10.14154,5.98762,5.98762,0,0,1-.65277.35443,5.9926,5.9926,0,0,1-.3111-10.87714A5.92869,5.92869,0,0,1,15.06537,15.01764Zm1.8302,10.11584a6.96576,6.96576,0,0,0-.16382-10.13239,5.92459,5.92459,0,0,1,.77454-0.43054,5.98792,5.98792,0,0,1-.007,10.8623A5.99518,5.99518,0,0,1,16.89557,25.13348ZM14.5,6h3a0.50065,0.50065,0,0,1,.5.5V9H14V6.5A0.50065,0.50065,0,0,1,14.5,6ZM14,10h4v1H14V10Zm-1,2h6v1H13V12ZM8,20a6.00528,6.00528,0,0,1,4.588-5.8252c0.14612,0.01434.28406,0.053,0.42694,0.07782a6.98245,6.98245,0,0,0,.33893,11.71124A6.00734,6.00734,0,0,1,8,20Zm10.9361,5.91949a0.46791,0.46791,0,0,0-.0611-0.025c-0.03436-.00653-0.06525-0.02106-0.09937-0.02814a6.98545,6.98545,0,0,0,.0141-11.7243c0.07043-.01459.1366-0.04,0.208-0.05212A5.99209,5.99209,0,0,1,18.9361,25.91949Z" style="fill: #010101;"/>
	<metadata>
		<rdf:RDF xmlns:rdf="http://www.w3.org/1999/02/22-rdf-syntax-ns#" xmlns:rdfs="http://www.w3.org/2000/01/rdf-schema#" xmlns:dc="http://purl.org/dc/elements/1.1/">
			<rdf:Description about="https://iconscout.com/legal#licenses" dc:title="19 perfume fragrant bottle  scent fragrance aroma hugiene woman" dc:description="19 perfume fragrant bottle  scent fragrance aroma hugiene woman" dc:publisher="Iconscout" dc:date="2017-03-07" dc:format="image/svg+xml" dc:language="en">
				<dc:creator>
					<rdf:Bag>
						<rdf:li>Jemis Mali</rdf:li>
					</rdf:Bag>
				</dc:creator>
			</rdf:Description>
		</rdf:RDF>
    </metadata></svg>
