<svg xmlns="http://www.w3.org/2000/svg" xmlns:xlink="http://www.w3.org/1999/xlink" width="94.769" height="115.824" viewBox="0 0 94.769 115.824">
  <defs>
    <linearGradient id="linear-gradient" x1="-0.417" x2="1.285" y2="1.165" gradientUnits="objectBoundingBox">
      <stop offset="0" stop-color="#7ed56f" stop-opacity="0.8"/>
      <stop offset="1" stop-color="#28b485" stop-opacity="0.8"/>
    </linearGradient>
  </defs>
  <path id="perfume" d="M75.442,48.67V39.221a2.631,2.631,0,0,0-2.632-2.632H70.178V12.9A7.906,7.906,0,0,0,62.28,5H46.486a7.906,7.906,0,0,0-7.9,7.9V36.588H35.957a2.631,2.631,0,0,0-2.632,2.632V48.67a36.828,36.828,0,0,0,7.4,72c.08.007.155.04.236.04.057,0,.116-.016.174-.02.9.067,1.8.138,2.723.138H64.913A36.844,36.844,0,0,0,75.442,48.67ZM64.913,84.706a31.45,31.45,0,0,1-10.1,23.181,31.336,31.336,0,0,1-.843-46.857A31.533,31.533,0,0,1,64.913,84.706ZM54.3,115.072l-.13-.02c.267-.183.51-.394.771-.583.19.128.362.276.555.4-.394.083-.8.134-1.2.2ZM52.426,53.248c.619-.145,1.245-.269,1.877-.378.35.06.708.094,1.054.166q-.818.528-1.6,1.1C53.311,53.835,52.88,53.527,52.426,53.248ZM49.463,57.74a36.842,36.842,0,0,0,1.183,53.392A31.521,31.521,0,0,1,47.21,113a31.549,31.549,0,0,1-1.638-57.265,31.212,31.212,0,0,1,3.891,2.007ZM59.1,111a36.673,36.673,0,0,0-.862-53.344,31.19,31.19,0,0,1,4.078-2.267,31.525,31.525,0,0,1-.037,57.187A31.558,31.558,0,0,1,59.1,111ZM46.486,10.265H62.28A2.636,2.636,0,0,1,64.913,12.9V26.059H43.854V12.9A2.636,2.636,0,0,1,46.486,10.265ZM43.854,31.324H64.913v5.265H43.854ZM38.589,41.853H70.178v5.265H38.589ZM12.266,83.971A31.616,31.616,0,0,1,36.42,53.3c.769.076,1.5.279,2.248.41a36.761,36.761,0,0,0,1.784,61.656A31.627,31.627,0,0,1,12.266,83.971Zm57.576,31.165a2.465,2.465,0,0,0-.322-.132c-.181-.034-.344-.111-.523-.148a36.777,36.777,0,0,0,.074-61.725c.371-.077.719-.211,1.1-.274a31.547,31.547,0,0,1-.324,62.28Z" transform="translate(-7 -5)" fill="url(#linear-gradient)"/>
</svg>

