<svg xmlns="http://www.w3.org/2000/svg" viewBox="0 0 48 48"><path d="M40,2H17a.9931.9931,0,0,0-.3713.0749.9573.9573,0,0,0-.1267.077.9769.9769,0,0,0-.1666.101l-9,8c-.0069.0062-.0094.0157-.0161.0221a.99.99,0,0,0-.1778.2422A.6749.6749,0,0,0,7,11V45a1,1,0,0,0,1,1H40a1,1,0,0,0,1-1V3A1,1,0,0,0,40,2ZM16,5.227V10H10.63ZM39,44H9V12h8a1,1,0,0,0,1-1V4H39Z"/><path d="M16 14a1 1 0 0 0-1 1v2H13a1 1 0 0 0-1 1v4a1 1 0 0 0 1 1h2v2a1 1 0 0 0 1 1h4a1 1 0 0 0 1-1V23h2a1 1 0 0 0 1-1V18a1 1 0 0 0-1-1H21V15a1 1 0 0 0-1-1zm6 5v2H20a1 1 0 0 0-1 1v2H17V22a1 1 0 0 0-1-1H14V19h2a1 1 0 0 0 1-1V16h2v2a1 1 0 0 0 1 1zM27 18h9a1 1 0 0 0 0-2H27a1 1 0 0 0 0 2zM27 24h9a1 1 0 0 0 0-2H27a1 1 0 0 0 0 2zM36 29H14a1 1 0 0 0 0 2H36a1 1 0 0 0 0-2zM35 37.8633a6.014 6.014 0 0 1-3.8384-1.5244 1.0111 1.0111 0 0 0-.8056-.2881 1 1 0 0 0-.7334.44l-.7637 1.1455-1.1118-2.78a1.0005 1.0005 0 0 0-1.7608-.1835L24.168 37.3994a1 1 0 0 0 1.664 1.1094l.7637-1.1455 1.1118 2.78a1 1 0 0 0 .8252.623.9289.9289 0 0 0 .1035.0059 1 1 0 0 0 .8321-.4454l1.2192-1.8281A7.8056 7.8056 0 0 0 35 39.8633a1 1 0 0 0 0-2zM20 35H14a1 1 0 0 0 0 2h6a1 1 0 0 0 0-2z"/></svg>