<svg xmlns="http://www.w3.org/2000/svg" width="27.743" height="27.743" viewBox="0 0 27.743 27.743">
  <path id="whatsapp" d="M29.743,8.311A17.492,17.492,0,0,0,29.6,6.522a5.951,5.951,0,0,0-.513-1.5,5.077,5.077,0,0,0-.985-1.387,5.424,5.424,0,0,0-1.387-.985,5.937,5.937,0,0,0-1.5-.5A14.163,14.163,0,0,0,23.445,2H8.311a17.492,17.492,0,0,0-1.789.139,5.951,5.951,0,0,0-1.5.513,5.077,5.077,0,0,0-1.387.985,5.424,5.424,0,0,0-.985,1.387,5.937,5.937,0,0,0-.5,1.5A14.163,14.163,0,0,0,2,8.3V23.431a17.492,17.492,0,0,0,.139,1.789,5.951,5.951,0,0,0,.513,1.5,5.077,5.077,0,0,0,.985,1.387,5.424,5.424,0,0,0,1.387.985,5.937,5.937,0,0,0,1.5.5,14.161,14.161,0,0,0,1.776.153H23.431a17.491,17.491,0,0,0,1.789-.139,5.951,5.951,0,0,0,1.5-.513,5.077,5.077,0,0,0,1.387-.985,5.424,5.424,0,0,0,.985-1.387,5.937,5.937,0,0,0,.5-1.5,14.162,14.162,0,0,0,.153-1.776V8.311ZM16.19,25.581h0a9.876,9.876,0,0,1-4.758-1.248L6.161,25.72l1.387-5.16a9.911,9.911,0,1,1,8.642,5.021Zm0-18.213A8.323,8.323,0,0,0,9.185,20.033l.194.319L8.547,23.39l3.163-.86.305.18a8.323,8.323,0,0,0,4.161,1.151h0a8.323,8.323,0,1,0,0-16.646Zm4.855,11.818a2.525,2.525,0,0,1-1.678,1.179,3.232,3.232,0,0,1-1.554-.1,12.346,12.346,0,0,1-1.387-.527A11.1,11.1,0,0,1,12.182,16a4.827,4.827,0,0,1-1.013-2.566,2.774,2.774,0,0,1,.874-2.081.9.9,0,0,1,.666-.305H13.1c.153,0,.361,0,.555.43s.707,1.72.777,1.845a.472.472,0,0,1,0,.43,1.581,1.581,0,0,1-.25.416c-.125.153-.264.333-.375.444a.367.367,0,0,0-.111.5,7.712,7.712,0,0,0,1.387,1.72,6.936,6.936,0,0,0,2,1.235c.25.125.4.111.541,0a7.878,7.878,0,0,0,.791-.971c.166-.25.333-.208.555-.125s1.456.68,1.706.8.4.18.472.291a2.164,2.164,0,0,1-.1,1.082Z" transform="translate(-2 -2)" fill="#fff"/>
</svg>
